<svg xmlns="http://www.w3.org/2000/svg" width="18.828" height="18.828" viewBox="0 0 18.828 18.828">
  <g id="Icon_feather-eye-off" data-name="Icon feather-eye-off" transform="translate(1.414 1.414)">
    <path id="Path_71" data-name="Path 71" d="M13.82,16.138a7.324,7.324,0,0,1-4.32,1.5c-5.091,0-8-5.818-8-5.818A13.418,13.418,0,0,1,5.18,7.5M7.973,6.175A6.633,6.633,0,0,1,9.5,6c5.091,0,8,5.818,8,5.818a13.455,13.455,0,0,1-1.571,2.32m-4.887-.778a2.182,2.182,0,1,1-3.084-3.084" transform="translate(-1.5 -3.818)" fill="none" stroke="#919191" stroke-linecap="round" stroke-linejoin="round" stroke-width="2"/>
    <path id="Path_72" data-name="Path 72" d="M1.5,1.5l16,16" transform="translate(-1.5 -1.5)" fill="none" stroke="#919191" stroke-linecap="round" stroke-linejoin="round" stroke-width="2"/>
  </g>
</svg>
