<svg xmlns="http://www.w3.org/2000/svg" width="21.938" height="29.25" viewBox="0 0 21.938 29.25">
  <path id="Icon_awesome-clipboard-check" data-name="Icon awesome-clipboard-check" d="M19.2,3.656h-4.57a3.656,3.656,0,0,0-7.312,0H2.742A2.743,2.743,0,0,0,0,6.4V26.508A2.743,2.743,0,0,0,2.742,29.25H19.2a2.743,2.743,0,0,0,2.742-2.742V6.4A2.743,2.743,0,0,0,19.2,3.656ZM10.969,2.285A1.371,1.371,0,1,1,9.6,3.656,1.368,1.368,0,0,1,10.969,2.285Zm6.924,13.242-8.169,8.1a.686.686,0,0,1-.971-.006L4.033,18.864a.686.686,0,0,1,.006-.971l1.622-1.611a.686.686,0,0,1,.971.006l2.628,2.651,6.056-6.01a.686.686,0,0,1,.971.006L17.9,14.556A.686.686,0,0,1,17.893,15.528Z" fill="#0082cb"/>
</svg>
