<svg xmlns="http://www.w3.org/2000/svg" width="45" height="31.5" viewBox="0 0 45 31.5">
  <path id="Icon_awesome-cloud-download-alt" data-name="Icon awesome-cloud-download-alt" d="M37.8,15.933A6.758,6.758,0,0,0,31.5,6.75a6.716,6.716,0,0,0-3.748,1.139,11.251,11.251,0,0,0-21,5.611c0,.19.007.38.014.57a10.128,10.128,0,0,0,3.361,19.68H36a9,9,0,0,0,1.8-17.817ZM28.455,22.17,21.045,29.58a1.129,1.129,0,0,1-1.589,0L12.045,22.17a1.124,1.124,0,0,1,.795-1.92h4.6V12.375a1.128,1.128,0,0,1,1.125-1.125h3.375a1.128,1.128,0,0,1,1.125,1.125V20.25h4.6a1.124,1.124,0,0,1,.795,1.92Z" transform="translate(0 -2.25)" fill="#0082cb"/>
</svg>
