<svg xmlns="http://www.w3.org/2000/svg" width="50.5" height="67.333" viewBox="0 0 50.5 67.333">
  <path id="Icon_awesome-file-download" data-name="Icon awesome-file-download" d="M29.458,17.885V0H3.156A3.149,3.149,0,0,0,0,3.156V64.177a3.149,3.149,0,0,0,3.156,3.156H47.344A3.149,3.149,0,0,0,50.5,64.177V21.042H32.615A3.166,3.166,0,0,1,29.458,17.885Zm10.054,27.8L26.832,58.267a2.242,2.242,0,0,1-3.162,0L10.99,45.681a2.1,2.1,0,0,1,1.479-3.6h8.572V31.563a2.1,2.1,0,0,1,2.1-2.1h4.208a2.1,2.1,0,0,1,2.1,2.1V42.083H38.03A2.1,2.1,0,0,1,39.512,45.681ZM49.579,13.809,36.7.921A3.154,3.154,0,0,0,34.469,0h-.8V16.833H50.5v-.8A3.146,3.146,0,0,0,49.579,13.809Z" fill="#275fbc"/>
</svg>
