<svg xmlns="http://www.w3.org/2000/svg" width="29.539" height="29" viewBox="0 0 29.539 29">
  <path id="Icon_simple-microsoftexcel" data-name="Icon simple-microsoftexcel" d="M28.989,3.877h-9.9V5.708H22.01v2.9H19.093v.923H22.01v2.9H19.093v.949H22.01v2.743H19.093v1.1H22.01v2.75H19.093v1.1H22.01v2.766H19.093v2.017h9.9c.156-.047.287-.231.391-.551a2.7,2.7,0,0,0,.159-.783V4.212c0-.158-.054-.252-.159-.286A1.354,1.354,0,0,0,28.989,3.877ZM27.705,23.833H22.958V21.07h4.747v2.763Zm0-3.862H22.958V17.22h4.747Zm0-3.85H22.958V13.39h4.747v2.731Zm0-3.692H22.958v-2.9h4.747v2.9h0Zm0-3.839H22.958V5.71h4.747V8.59ZM0,3.42V26.314l17.428,3.014v-29L0,3.43ZM10.33,20.739q-.1-.27-.933-2.293c-.553-1.349-.886-2.134-.983-2.358H8.383l-1.87,4.449-2.5-.169L6.979,14.83,4.265,9.291l2.548-.134L8.5,13.491h.033l1.9-4.531,2.633-.166L9.929,14.788,13.16,20.9l-2.83-.166Z" transform="translate(0 -0.328)" fill="#275fbc"/>
</svg>
