<svg xmlns="http://www.w3.org/2000/svg" width="21.75" height="29" viewBox="0 0 21.75 29">
  <path id="Icon_awesome-file-pdf" data-name="Icon awesome-file-pdf" d="M10.3,14.506a5.465,5.465,0,0,1-.113-2.656C10.665,11.849,10.62,13.939,10.3,14.506Zm-.1,2.673A26.136,26.136,0,0,1,8.6,20.73a20.857,20.857,0,0,1,3.563-1.24A7.337,7.337,0,0,1,10.207,17.179Zm-5.33,7.069c0,.045.748-.306,1.977-2.277A7.829,7.829,0,0,0,4.877,24.248Zm9.17-15.185h7.7V27.641A1.356,1.356,0,0,1,20.391,29H1.359A1.356,1.356,0,0,1,0,27.641V1.359A1.356,1.356,0,0,1,1.359,0H12.688V7.7A1.363,1.363,0,0,0,14.047,9.063Zm-.453,9.731a5.685,5.685,0,0,1-2.419-3.047,8.141,8.141,0,0,0,.351-3.636,1.419,1.419,0,0,0-2.707-.385,9.418,9.418,0,0,0,.459,4.361,53.187,53.187,0,0,1-2.311,4.86c-.006,0-.006.006-.011.006-1.535.787-4.169,2.521-3.087,3.852a1.76,1.76,0,0,0,1.218.566c1.014,0,2.022-1.02,3.461-3.5a32.286,32.286,0,0,1,4.475-1.314,8.584,8.584,0,0,0,3.625,1.1A1.466,1.466,0,0,0,17.763,19.2c-.787-.77-3.076-.549-4.169-.408Zm7.76-12.846L15.8.4A1.358,1.358,0,0,0,14.84,0H14.5V7.25h7.25V6.9A1.355,1.355,0,0,0,21.354,5.947Zm-4.2,14.46c.232-.153-.142-.674-2.424-.51C16.834,20.793,17.156,20.408,17.156,20.408Z" fill="#275fbc"/>
</svg>
