<svg xmlns="http://www.w3.org/2000/svg" width="32.368" height="32.368" viewBox="0 0 32.368 32.368">
  <g id="Group_587" data-name="Group 587" transform="translate(-291.11 -424.868)">
    <path id="Icon_ionic-md-add-circle" data-name="Icon ionic-md-add-circle" d="M10.919,3.375a7.544,7.544,0,1,0,7.544,7.544A7.544,7.544,0,0,0,10.919,3.375ZM14.8,11.681H11.681V14.8H10.158V11.681H7.038V10.158h3.119V7.038h1.523v3.119H14.8Z" transform="translate(287.735 421.493)" fill="#0082cb"/>
    <path id="Icon_metro-qrcode" data-name="Icon metro-qrcode" d="M10.038,3.421H4.064V9.4h5.974Zm1.493-1.493v8.961H2.571V1.928ZM5.558,4.915H8.545V7.9H5.558ZM24.973,3.421H19V9.4h5.974Zm1.493-1.493v8.961H17.505V1.928h8.961ZM20.492,4.915h2.987V7.9H20.492ZM10.038,18.356H4.064V24.33h5.974Zm1.493-1.493v8.961H2.571V16.863ZM5.558,19.85H8.545v2.987H5.558ZM13.025,1.928h1.493V3.421H13.025Zm1.493,1.493h1.493V4.915H14.518ZM13.025,4.915h1.493V6.408H13.025Zm1.493,1.493h1.493V7.9H14.518ZM13.025,7.9h1.493V9.4H13.025ZM14.518,9.4h1.493v1.493H14.518Zm-1.493,1.493h1.493v1.493H13.025Zm0,2.987h1.493v1.493H13.025Zm1.493,1.493h1.493v1.493H14.518Zm-1.493,1.493h1.493v1.493H13.025Zm1.493,1.493h1.493V19.85H14.518ZM13.025,19.85h1.493v1.493H13.025Zm1.493,1.493h1.493v1.493H14.518Zm-1.493,1.493h1.493V24.33H13.025Zm1.493,1.493h1.493v1.493H14.518ZM24.973,13.876h1.493v1.493H24.973Zm-20.909,0H5.558v1.493H4.064Zm1.493-1.493H7.051v1.493H5.558Zm-2.987,0H4.064v1.493H2.571Zm5.974,0h1.493v1.493H8.545Zm1.493,1.493h1.493v1.493H10.038Zm1.493-1.493h1.493v1.493H11.532Zm4.48,1.493h1.493v1.493H16.012Zm1.493-1.493H19v1.493H17.505ZM19,13.876h1.493v1.493H19Zm1.493-1.493h1.493v1.493H20.492Zm1.493,1.493h1.493v1.493H21.986Zm1.493-1.493h1.493v1.493H23.479Zm1.493,4.48h1.493v1.493H24.973Zm-8.961,0h1.493v1.493H16.012Zm1.493-1.493H19v1.493H17.505ZM19,16.863h1.493v1.493H19Zm2.987,0h1.493v1.493H21.986Zm1.493-1.493h1.493v1.493H23.479Zm1.493,4.48h1.493v1.493H24.973Zm-8.961,0h1.493v1.493H16.012Zm1.493-1.493H19V19.85H17.505Zm2.987,0h1.493V19.85H20.492Zm1.493,1.493h1.493v1.493H21.986Zm1.493-1.493h1.493V19.85H23.479Zm1.493,4.48h1.493V24.33H24.973Zm-7.467-1.493H19v1.493H17.505ZM19,22.837h1.493V24.33H19Zm1.493-1.493h1.493v1.493H20.492Zm1.493,1.493h1.493V24.33H21.986Zm-4.48,1.493H19v1.493H17.505Zm2.987,0h1.493v1.493H20.492Zm2.987,0h1.493v1.493H23.479Z" transform="translate(297.012 431.412)" fill="#0082cb"/>
  </g>
</svg>
